<svg class="animated" id="freepik_stories-monitor-computer" xmlns="http://www.w3.org/2000/svg" viewBox="0 0 500 500" version="1.1" xmlns:xlink="http://www.w3.org/1999/xlink" xmlns:svgjs="http://svgjs.com/svgjs"><style>svg#freepik_stories-monitor-computer:not(.animated) .animable {opacity: 0;}svg#freepik_stories-monitor-computer.animated #freepik--Monitor--inject-545 {animation: 3s Infinite  linear floating;animation-delay: 0s;}svg#freepik_stories-monitor-computer.animated #freepik--Sparkles--inject-545 {animation: 3s Infinite  linear wind;animation-delay: 0s;}            @keyframes floating {                0% {                    opacity: 1;                    transform: translateY(0px);                }                50% {                    transform: translateY(-10px);                }                100% {                    opacity: 1;                    transform: translateY(0px);                }            }                    @keyframes wind {                0% {                    transform: rotate( 0deg );                }                25% {                    transform: rotate( 1deg );                }                75% {                    transform: rotate( -1deg );                }            }        .animator-hidden { display: none; }</style><g id="freepik--background-simple--inject-545" class="animable animator-active" style="transform-origin: 265.46px 244.019px;"><path d="M97.77,114.92c10.72-30.14,53.07-38.65,80.2-23.2,26.47,15.08,49.8,43.39,82.93,41.54,32.68-1.82,54.81-31.1,83.7-42.74s65.82-3.93,82.57,24c17.08,28.48,6,66.57-12.45,91.66-26.34,35.84-66.81,59-90.8,96.73a119.76,119.76,0,0,0-17.66,45.89c-2.55,16-3.89,33.9-16.66,45.54-15,13.66-36.85,11.78-52.18-.21-21.23-16.61-34.42-45.13-41-70.68-7.12-27.38-11.09-56.35-26.14-80.3-12-19-30-33.32-45.59-49.53-16.54-17.19-30.73-41.72-29.32-66.3A44,44,0,0,1,97.77,114.92Z" style="fill: rgb(2, 152, 239); transform-origin: 265.46px 244.019px;" id="el4fo8hqo41xg" class="animable"></path><g id="elxewo5sed6di"><path d="M97.77,114.92c10.72-30.14,53.07-38.65,80.2-23.2,26.47,15.08,49.8,43.39,82.93,41.54,32.68-1.82,54.81-31.1,83.7-42.74s65.82-3.93,82.57,24c17.08,28.48,6,66.57-12.45,91.66-26.34,35.84-66.81,59-90.8,96.73a119.76,119.76,0,0,0-17.66,45.89c-2.55,16-3.89,33.9-16.66,45.54-15,13.66-36.85,11.78-52.18-.21-21.23-16.61-34.42-45.13-41-70.68-7.12-27.38-11.09-56.35-26.14-80.3-12-19-30-33.32-45.59-49.53-16.54-17.19-30.73-41.72-29.32-66.3A44,44,0,0,1,97.77,114.92Z" style="fill: rgb(255, 255, 255); opacity: 0.9; transform-origin: 265.46px 244.019px;" class="animable"></path></g></g><g id="freepik--Shadow--inject-545" class="animable" style="transform-origin: 250px 416.24px;"><ellipse id="freepik--path--inject-545" cx="250" cy="416.24" rx="193.89" ry="11.32" style="fill: rgb(245, 245, 245); transform-origin: 250px 416.24px;" class="animable"></ellipse></g><g id="freepik--Monitor--inject-545" class="animable" style="transform-origin: 192.443px 274.878px;"><path d="M207.85,417.24c-.27,0-27.93-.1-55.49-1.37-56.48-2.61-57.56-7.54-58-9.39a3.46,3.46,0,0,1,.53-2.73c2.45-3.64,12-5.33,23.07-7.28,10.29-1.82,22-3.88,24.18-7.54a2.22,2.22,0,0,0,.21-1.92c-1.24-3.93-12.47-6.65-25.48-9.8-22.07-5.35-49.53-12-57.91-29.84-13.46-28.65.92-76.11,1.54-78.12l1.91.59c-.15.49-14.77,48.74-1.64,76.68,8,17,36.06,23.77,56.57,28.74,14.71,3.57,25.34,6.14,26.92,11.15a4.23,4.23,0,0,1-.41,3.56c-2.7,4.43-13.79,6.39-25.54,8.46-9.27,1.64-19.79,3.5-21.75,6.44a1.45,1.45,0,0,0-.25,1.18c.27,1.24,5.12,5.47,56.1,7.82,27.51,1.27,55.13,1.37,55.41,1.37Z" style="fill: rgb(38, 50, 56); transform-origin: 130.539px 343.245px;" id="elxyzyw8c5k9a" class="animable"></path><rect x="198.75" y="155.71" width="6.53" height="7.52" style="fill: rgb(38, 50, 56); transform-origin: 202.015px 159.47px;" id="elr3dkwq1nn3a" class="animable"></rect><g id="elsfd4h6h880i"><rect x="198.75" y="155.71" width="6.53" height="7.52" style="fill: rgb(255, 255, 255); opacity: 0.2; transform-origin: 202.015px 159.47px;" class="animable"></rect></g><path d="M188.62,169.57l1.31-4.48a3.83,3.83,0,0,1,3.67-2.75H213a3.82,3.82,0,0,1,3.35,2l2.87,5.24H187.77" style="fill: rgb(38, 50, 56); transform-origin: 203.495px 165.96px;" id="el2r0vkduuq3p" class="animable"></path><g id="elcq7kvqvloza"><path d="M188.62,169.57l1.31-4.48a3.83,3.83,0,0,1,3.67-2.75H213a3.82,3.82,0,0,1,3.35,2l2.87,5.24H187.77" style="fill: rgb(255, 255, 255); opacity: 0.4; transform-origin: 203.495px 165.96px;" class="animable"></path></g><g id="eledtncr8orgd"><path d="M196.08,169.57h23.14l-2.87-5.24a3.82,3.82,0,0,0-3.35-2H198.15a2.08,2.08,0,0,0-2.07,2.08Z" style="fill: rgb(255, 255, 255); opacity: 0.2; transform-origin: 207.65px 165.95px;" class="animable"></path></g><g id="els7tjufbvpr"><circle cx="202.42" cy="148.13" r="12.08" style="fill: rgb(38, 50, 56); transform-origin: 202.42px 148.13px; transform: rotate(-45deg);" class="animable"></circle></g><g id="ely22117veqi"><circle cx="202.42" cy="148.13" r="12.08" style="fill: rgb(255, 255, 255); opacity: 0.3; transform-origin: 202.42px 148.13px; transform: rotate(-45deg);" class="animable"></circle></g><path d="M214.49,151a6.61,6.61,0,1,1-6.6-6.61A6.61,6.61,0,0,1,214.49,151Z" style="fill: rgb(38, 50, 56); transform-origin: 207.88px 151px;" id="eltk3ilqam6ca" class="animable"></path><g id="elr1ymfy208x"><path d="M214.49,151a6.61,6.61,0,1,1-6.6-6.61A6.61,6.61,0,0,1,214.49,151Z" style="fill: rgb(255, 255, 255); opacity: 0.2; transform-origin: 207.88px 151px;" class="animable"></path></g><path d="M213,151.48a4.34,4.34,0,1,1-4.33-4.34A4.33,4.33,0,0,1,213,151.48Z" style="fill: rgb(38, 50, 56); transform-origin: 208.66px 151.48px;" id="el1ssojep01jl" class="animable"></path><g id="els9zbezgszj"><path d="M201.28,143.48a.9.9,0,1,1-.89-.89A.89.89,0,0,1,201.28,143.48Z" style="opacity: 0.2; isolation: isolate; transform-origin: 200.38px 143.49px;" class="animable"></path></g><path d="M118.72,164.3s-44.28-3.05-47.72,82l-9.41-.58s-2.68-52.61,19.63-78.81a23.1,23.1,0,0,1,18.68-8C107.88,159.26,118.07,160.48,118.72,164.3Z" style="fill: rgb(38, 50, 56); transform-origin: 90.1047px 202.59px;" id="el9ts1tupv2i" class="animable"></path><g id="elxcbx18orgb"><circle cx="66.23" cy="254.13" r="21.47" style="fill: rgb(38, 50, 56); transform-origin: 66.23px 254.13px; transform: rotate(-25.18deg);" class="animable"></circle></g><g id="eleaicfm3d8b9"><circle cx="66.23" cy="254.13" r="21.47" style="fill: rgb(255, 255, 255); opacity: 0.1; transform-origin: 66.23px 254.13px; transform: rotate(-25.18deg);" class="animable"></circle></g><path d="M55.37,249.75a11.54,11.54,0,1,0,14.77-6.95A11.53,11.53,0,0,0,55.37,249.75Z" style="fill: rgb(38, 50, 56); transform-origin: 66.2285px 253.655px;" id="elv0bp89svztb" class="animable"></path><g id="elaqlzwu4cfpm"><circle cx="64.25" cy="253.67" r="7.75" style="fill: rgb(255, 255, 255); opacity: 0.1; transform-origin: 64.25px 253.67px; transform: rotate(-25.18deg);" class="animable"></circle></g><path d="M257.09,414v3.85a.86.86,0,0,1-.87.86H147.51a5.66,5.66,0,0,1-5.26-7.78l34.45-85.32,55.67.38-1.9,11.07-12.28,71.65a3.79,3.79,0,0,0,3.73,4.43h34.3A.86.86,0,0,1,257.09,414Z" style="fill: rgb(2, 152, 239); transform-origin: 199.464px 372.16px;" id="elmqqptf4ss9" class="animable"></path><g id="elqzwt4ug6ji"><path d="M257.09,414v3.85a.86.86,0,0,1-.87.86H147.51a5.66,5.66,0,0,1-5.26-7.78l21.36-52.89,13.09-32.43,55.67.38-1.9,11.07-5.34,31.16-6.94,40.49a3.79,3.79,0,0,0,3.73,4.43h34.3A.86.86,0,0,1,257.09,414Z" style="fill: rgb(255, 255, 255); opacity: 0.6; transform-origin: 199.464px 372.16px;" class="animable"></path></g><g id="elv4np90rskwh"><path d="M221.92,413.17H151.19a2.48,2.48,0,0,1-2.29-3.43l30.2-72.65h51.37l-12.28,71.65A3.79,3.79,0,0,0,221.92,413.17Z" style="opacity: 0.2; isolation: isolate; transform-origin: 189.59px 375.13px;" class="animable"></path></g><g id="el4n6tmzj2088"><polygon points="232.37 326.02 230.47 337.09 225.13 368.25 163.61 358.07 176.7 325.64 232.37 326.02" style="opacity: 0.1; isolation: isolate; transform-origin: 197.99px 346.945px;" class="animable"></polygon></g><path d="M340.62,167H82.89a6.59,6.59,0,0,0-6.59,6.6V348.05a6.59,6.59,0,0,0,6.59,6.59H340.62a6.59,6.59,0,0,0,6.6-6.59V173.57A6.59,6.59,0,0,0,340.62,167Z" style="fill: rgb(2, 152, 239); transform-origin: 211.76px 260.82px;" id="elg30b9inmnp" class="animable"></path><g id="el91oa28xlpa"><path d="M340.62,167H82.89a6.59,6.59,0,0,0-6.59,6.6V348.05a6.59,6.59,0,0,0,6.59,6.59H340.62a6.59,6.59,0,0,0,6.6-6.59V173.57A6.59,6.59,0,0,0,340.62,167Z" style="fill: rgb(255, 255, 255); opacity: 0.7; transform-origin: 211.76px 260.82px;" class="animable"></path></g><g id="el0exc20jhrfv"><path d="M88.35,354.64H82.89a6.59,6.59,0,0,1-6.59-6.59V173.57a6.59,6.59,0,0,1,6.59-6.6h5.46a6.59,6.59,0,0,0-6.59,6.6V348.05A6.59,6.59,0,0,0,88.35,354.64Z" style="opacity: 0.2; isolation: isolate; transform-origin: 82.325px 260.805px;" class="animable"></path></g><rect x="87.71" y="173.43" width="253.57" height="168.25" style="fill: rgb(2, 152, 239); transform-origin: 214.495px 257.555px;" id="elkgz5jo9a1x" class="animable"></rect><g id="elac0uqg1dkk"><path d="M314.85,173.43C279.79,208.55,189.74,286.73,87.71,281V173.43Z" style="fill: rgb(255, 255, 255); opacity: 0.1; transform-origin: 201.28px 227.364px;" class="animable"></path></g><g id="elbcig8o7qmcf"><path d="M341.28,238V341.68H188.62c5.85-20.94,17.55-49.62,40.26-70.12C269.72,234.69,317.11,234.8,341.28,238Z" style="fill: rgb(255, 255, 255); opacity: 0.1; transform-origin: 264.95px 289.187px;" class="animable"></path></g><g id="eljlfzokb0zna"><rect x="187.57" y="272.18" width="53.85" height="4.9" rx="2.24" style="fill: rgb(255, 255, 255); opacity: 0.8; transform-origin: 214.495px 274.63px;" class="animable"></rect></g><g id="elpdkla4k2nhc"><rect x="181.07" y="283.08" width="66.85" height="9.14" rx="1.68" style="opacity: 0.4; isolation: isolate; transform-origin: 214.495px 287.65px;" class="animable"></rect></g><rect x="240.06" y="284.17" width="6.76" height="6.95" rx="0.59" style="fill: rgb(2, 152, 239); transform-origin: 243.44px 287.645px;" id="elutzu391walo" class="animable"></rect><g id="el0pd3rapxwrre"><path d="M243,236.41a28.5,28.5,0,1,1-28.49-28.49A28.36,28.36,0,0,1,243,236.41Z" style="opacity: 0.4; isolation: isolate; transform-origin: 214.5px 236.42px;" class="animable"></path></g><g id="el6g22zunmjae"><path d="M236,255.07a28.48,28.48,0,0,1-43.08,0,22.41,22.41,0,0,1,15.5-15.52,11,11,0,1,1,12.09,0A22.4,22.4,0,0,1,236,255.07Z" style="fill: rgb(255, 255, 255); opacity: 0.8; transform-origin: 214.46px 242.139px;" class="animable"></path></g><g id="elr9zidnxm29g"><rect x="305.83" y="328.94" width="5.62" height="5.62" style="opacity: 0.4; isolation: isolate; transform-origin: 308.64px 331.75px;" class="animable"></rect></g><g id="elu5it6n8ymp"><rect x="316.76" y="328.94" width="5.62" height="5.62" rx="1.44" style="opacity: 0.4; isolation: isolate; transform-origin: 319.57px 331.75px;" class="animable"></rect></g><g id="elvncs7xlqka"><rect x="327.68" y="328.94" width="5.62" height="5.62" rx="2.57" style="opacity: 0.4; isolation: isolate; transform-origin: 330.49px 331.75px;" class="animable"></rect></g><g id="elg2j33vz3vfn"><g style="opacity: 0.1; transform-origin: 171.02px 257.555px;" class="animable"><polygon points="125.29 173.43 87.71 313.85 87.71 173.43 125.29 173.43" style="fill: rgb(255, 255, 255); transform-origin: 106.5px 243.64px;" id="elecuqw3ylimb" class="animable"></polygon><polygon points="167.7 173.43 122.67 341.68 91.65 341.68 136.67 173.43 167.7 173.43" style="fill: rgb(255, 255, 255); transform-origin: 129.675px 257.555px;" id="el5nfd02c751r" class="animable"></polygon><polygon points="212.8 173.43 167.77 341.68 153.74 341.68 198.77 173.43 212.8 173.43" style="fill: rgb(255, 255, 255); transform-origin: 183.27px 257.555px;" id="elmldoq6mjmt" class="animable"></polygon><polygon points="254.33 173.43 209.3 341.68 204.28 341.68 249.31 173.43 254.33 173.43" style="fill: rgb(255, 255, 255); transform-origin: 229.305px 257.555px;" id="elga6sn81uc3a" class="animable"></polygon></g></g><circle cx="103.8" cy="260.8" r="21.47" style="fill: rgb(38, 50, 56); transform-origin: 103.8px 260.8px;" id="el3xpjp49pnzw" class="animable"></circle><g id="elaczq1fgrroo"><circle cx="104.57" cy="260.94" r="18.82" style="fill: rgb(38, 50, 56); transform-origin: 104.57px 260.94px; transform: rotate(-45deg);" class="animable"></circle></g><g id="el7b89n9zao5c"><circle cx="104.57" cy="260.94" r="18.82" style="fill: rgb(255, 255, 255); opacity: 0.2; transform-origin: 104.57px 260.94px; transform: rotate(-45deg);" class="animable"></circle></g><path d="M100.52,161.81s22.8,25.09,5.51,89.67l9,2.65s25.52-60.91,2.42-91.54C117.5,162.59,103.68,156.21,100.52,161.81Z" style="fill: rgb(38, 50, 56); transform-origin: 113.822px 206.819px;" id="elikzuae3czq" class="animable"></path><g id="elol856h38hn8"><path d="M100.52,161.81s22.8,25.09,5.51,89.67l9,2.65s25.52-60.91,2.42-91.54C117.5,162.59,103.68,156.21,100.52,161.81Z" style="fill: rgb(255, 255, 255); opacity: 0.1; transform-origin: 113.822px 206.819px;" class="animable"></path></g><g id="ellj2nacly9s"><circle cx="106.91" cy="261.54" r="11.54" style="fill: rgb(38, 50, 56); transform-origin: 106.91px 261.54px; transform: rotate(-76.72deg);" class="animable"></circle></g><g id="elqfe66sgsg3"><circle cx="106.91" cy="261.54" r="11.54" style="fill: rgb(255, 255, 255); opacity: 0.1; transform-origin: 106.91px 261.54px; transform: rotate(-76.72deg);" class="animable"></circle></g><g id="elbsivmlmqc64"><circle cx="107.68" cy="261.54" r="9.59" style="fill: rgb(38, 50, 56); transform-origin: 107.68px 261.54px; transform: rotate(-22.5deg);" class="animable"></circle></g><g id="elfprr3y3av89"><circle cx="107.68" cy="261.54" r="9.59" style="fill: rgb(255, 255, 255); opacity: 0.2; transform-origin: 107.68px 261.54px; transform: rotate(-22.5deg);" class="animable"></circle></g></g><g id="freepik--Sparkles--inject-545" class="animable" style="transform-origin: 203.395px 259.88px;"><polygon points="247.19 230.29 245.81 221.9 244.43 230.29 236.03 231.68 244.43 233.06 245.81 241.45 247.19 233.06 255.58 231.68 247.19 230.29" style="fill: rgb(2, 152, 239); transform-origin: 245.805px 231.675px;" id="elnntzgpota6" class="animable"></polygon><polygon points="291.53 142.99 289.89 133.05 288.26 142.99 278.31 144.63 288.26 146.27 289.89 156.21 291.53 146.27 301.48 144.63 291.53 142.99" style="fill: rgb(2, 152, 239); transform-origin: 289.895px 144.63px;" id="elrhrz6sabiln" class="animable"></polygon><polygon points="331.48 253.15 330.49 247.15 329.5 253.15 323.51 254.13 329.5 255.12 330.49 261.11 331.48 255.12 337.47 254.13 331.48 253.15" style="fill: rgb(2, 152, 239); transform-origin: 330.49px 254.13px;" id="els8cnk25gsx7" class="animable"></polygon><g id="elxem19t8jl4r"><polygon points="247.19 230.29 245.81 221.9 244.43 230.29 236.03 231.68 244.43 233.06 245.81 241.45 247.19 233.06 255.58 231.68 247.19 230.29" style="fill: rgb(255, 255, 255); opacity: 0.6; transform-origin: 245.805px 231.675px;" class="animable"></polygon></g><polygon points="138.27 323.58 136.89 315.19 135.51 323.58 127.11 324.96 135.51 326.35 136.89 334.74 138.27 326.35 146.66 324.96 138.27 323.58" style="fill: rgb(2, 152, 239); transform-origin: 136.885px 324.965px;" id="eljh39qop5iy9" class="animable"></polygon><g id="els3w4fq275uo"><polygon points="138.27 323.58 136.89 315.19 135.51 323.58 127.11 324.96 135.51 326.35 136.89 334.74 138.27 326.35 146.66 324.96 138.27 323.58" style="fill: rgb(255, 255, 255); opacity: 0.6; transform-origin: 136.885px 324.965px;" class="animable"></polygon></g><g id="elvzqigmnkfmb"><polygon points="291.53 142.99 289.89 133.05 288.26 142.99 278.31 144.63 288.26 146.27 289.89 156.21 291.53 146.27 301.48 144.63 291.53 142.99" style="fill: rgb(255, 255, 255); opacity: 0.6; transform-origin: 289.895px 144.63px;" class="animable"></polygon></g><polygon points="258.67 373.49 257.03 363.55 255.39 373.49 245.44 375.13 255.39 376.77 257.03 386.71 258.67 376.77 268.61 375.13 258.67 373.49" style="fill: rgb(2, 152, 239); transform-origin: 257.025px 375.13px;" id="el5ag46mw6e7f" class="animable"></polygon><g id="elo273fhd20a"><polygon points="258.67 373.49 257.03 363.55 255.39 373.49 245.44 375.13 255.39 376.77 257.03 386.71 258.67 376.77 268.61 375.13 258.67 373.49" style="fill: rgb(255, 255, 255); opacity: 0.6; transform-origin: 257.025px 375.13px;" class="animable"></polygon></g><g id="ela0bk1rjih4w"><polygon points="331.48 253.15 330.49 247.15 329.5 253.15 323.51 254.13 329.5 255.12 330.49 261.11 331.48 255.12 337.47 254.13 331.48 253.15" style="fill: rgb(255, 255, 255); opacity: 0.6; transform-origin: 330.49px 254.13px;" class="animable"></polygon></g><polygon points="77.29 155.46 76.3 149.47 75.31 155.46 69.32 156.45 75.31 157.44 76.3 163.43 77.29 157.44 83.28 156.45 77.29 155.46" style="fill: rgb(2, 152, 239); transform-origin: 76.3px 156.45px;" id="elj2ny02jl7un" class="animable"></polygon><g id="elnyp5442j7p"><polygon points="77.29 155.46 76.3 149.47 75.31 155.46 69.32 156.45 75.31 157.44 76.3 163.43 77.29 157.44 83.28 156.45 77.29 155.46" style="fill: rgb(255, 255, 255); opacity: 0.6; transform-origin: 76.3px 156.45px;" class="animable"></polygon></g></g><g id="freepik--Character--inject-545" class="animable animator-hidden" style="transform-origin: 357px 283.758px;"><g id="freepik--group--inject-545" class="animable" style="transform-origin: 357px 283.758px;"><path d="M448.16,220.68a38.11,38.11,0,0,0,.5,9.9h-1.29a34.71,34.71,0,0,1-1.78-9.9Z" style="fill: rgb(2, 152, 239); transform-origin: 447.125px 225.63px;" id="ela2e97h2goxl" class="animable"></path><path d="M450.74,222.87,444,222.4s.1,1,.24,2.63c0,.52.09,1.1.14,1.74.58,7.56,1.43,22.65-.77,26.16-3,4.75-16.22-5.73-16.62-11.47,0,0,3.21-12.45,9.22-19.06a18.08,18.08,0,0,1,1.8-1.72c.18-.16.36-.3.55-.44l-.3-10,2.18-1a44.33,44.33,0,0,1,11.46,11Z" style="fill: rgb(2, 152, 239); transform-origin: 439.445px 231.686px;" id="el06ly8vl0udjo" class="animable"></path><g id="el7h78sff45ul"><path d="M443.62,252.93a2.22,2.22,0,0,1-.83.81c-4.05,2.4-15.42-7-15.79-12.28,0,0,.06-.23.18-.65.83-2.94,4.57-15,10.84-20.13a10.45,10.45,0,0,1,2.63.7,8.91,8.91,0,0,1,3.6,3.65C444.81,231.71,446,249.12,443.62,252.93Z" style="fill: rgb(255, 255, 255); opacity: 0.7; transform-origin: 436.024px 237.402px;" class="animable"></path></g><g id="el7m5xyfuf3gu"><path d="M442.79,253.74c-4.05,2.4-15.42-7-15.79-12.28,0,0,.06-.23.18-.65C431.94,238.12,444.71,247.37,442.79,253.74Z" style="opacity: 0.2; isolation: isolate; transform-origin: 434.993px 247.228px;" class="animable"></path></g><g id="elcwpljtpuj4q"><path d="M444.25,225c0,.52.09,1.1.14,1.74l-8.17-4.37a18.08,18.08,0,0,1,1.8-1.72c.18-.16.36-.3.55-.44l-.3-10,2.18-1s-.1,4.05,1,4.94,8.41,6.63,9.3,8.71L444,222.4S444.11,223.39,444.25,225Z" style="opacity: 0.2; isolation: isolate; transform-origin: 443.485px 217.975px;" class="animable"></path></g><polygon points="354.43 411.29 346.32 412.14 345.91 407.44 344.8 394.65 352.91 393.79 354.14 407.92 354.43 411.29" style="fill: rgb(228, 137, 123); transform-origin: 349.615px 402.965px;" id="elylkj099tb3d" class="animable"></polygon><polygon points="424.91 410.26 417.05 410.26 416.66 408.49 416.61 408.27 414.17 396.92 414.11 396.69 413.17 392.34 421.04 392.34 424.91 410.26" style="fill: rgb(228, 137, 123); transform-origin: 419.04px 401.3px;" id="elz2d2apwmuy" class="animable"></polygon><g id="elteakiexlqn"><polygon points="352.91 393.79 354.14 407.92 345.91 407.44 344.8 394.65 352.91 393.79" style="opacity: 0.2; isolation: isolate; transform-origin: 349.47px 400.855px;" class="animable"></polygon></g><g id="ela0qll7e3roh"><polygon points="424.68 409.27 424.67 409.27 416.62 408.27 416.61 408.27 414.23 397.32 414.24 397.32 422.23 397.95 424.61 408.92 424.68 409.27" style="opacity: 0.2; isolation: isolate; transform-origin: 419.455px 403.295px;" class="animable"></polygon></g><path d="M416,409.79h9.55a.69.69,0,0,1,.67.54l1.55,7a1.18,1.18,0,0,1-1.15,1.4c-3.09-.05-5.34-.24-9.22-.24-2.39,0-9.6.25-12.9.25s-3.73-3.26-2.38-3.56c6.06-1.32,10.62-3.15,12.56-4.89A1.89,1.89,0,0,1,416,409.79Z" style="fill: rgb(38, 50, 56); transform-origin: 414.597px 414.265px;" id="elo39jcq2ps2" class="animable"></path><path d="M345.46,409.54H355a.69.69,0,0,1,.67.54l1.55,7a1.18,1.18,0,0,1-1.15,1.4c-3.09-.05-5.34-.24-9.22-.24-2.39,0-9.6.25-12.9.25s-3.73-3.26-2.38-3.56c6.06-1.32,10.62-3.15,12.56-4.89A1.89,1.89,0,0,1,345.46,409.54Z" style="fill: rgb(38, 50, 56); transform-origin: 344.047px 414.015px;" id="el5xj83094tmn" class="animable"></path><path d="M344.06,404.26l11.6.38c-4.22-77.56-6.19-81.52,31.46-118.15.88,11.08,1.87,22.58,2.84,32.16.61,5.93.79,11.1,1.78,14.9,6.69,25.69,22.82,71.15,22.82,71.15l11.32.51s-14.17-62.31-15.63-82.62c-1.91-26.64,4.31-55.48.78-76.33L371.48,253C335.62,305.45,329.05,316.79,344.06,404.26Z" style="fill: rgb(2, 152, 239); transform-origin: 381.204px 325.735px;" id="elgdkte7kga7m" class="animable"></path><g id="elg62b1ylbnto"><path d="M344.06,404.26l11.6.38c-4.22-77.56-6.19-81.52,31.46-118.15.88,11.08,1.87,22.58,2.84,32.16.61,5.93.79,11.1,1.78,14.9,6.69,25.69,22.82,71.15,22.82,71.15l11.32.51s-14.17-62.31-15.63-82.62c-1.91-26.64,4.31-55.48.78-76.33L371.48,253C335.62,305.45,329.05,316.79,344.06,404.26Z" style="fill: rgb(255, 255, 255); opacity: 0.3; transform-origin: 381.204px 325.735px;" class="animable"></path></g><path d="M270.27,181.79c-3.16,4.55-8.17,20.81-8.17,26.13S262,211.41,265,213s12.71,6.92,17.46,10.71,6.06,1.31,7.91,5.19,13.09-28.09,15.51-31.62-.48-1.91-2.85-4-12.85-8.87-18.56-11.43-8.34,1.51-9.93,0S270.27,181.79,270.27,181.79Z" style="fill: rgb(240, 240, 240); transform-origin: 284.446px 205.104px;" id="elquwdhks2n8s" class="animable"></path><path d="M322.93,209.75s-8.36,20.16-11.48,20.9c-2.81.66-20.93-27.76-20.93-27.76s-2.37-8.83-2.64-11.4-11.6,3-11.87,4.54,3.32,11.87,7.86,12.66c0,0,15.52,35.08,25.32,37.45s30.26-31.38,30.26-31.38Z" style="fill: rgb(228, 137, 123); transform-origin: 307.723px 218.541px;" id="elnxtx1jgbr8" class="animable"></path><path d="M377.43,179.13s27.13,2.47,32.35,4.89,27.79,33.42,27.79,33.42,9.4,3.21,9,6.59-.74,9.54-3.43,8.58-9.69-6.76-9.69-6.76l-.29-3s-26.5-28.21-27.57-29-27.7-1.64-27.7-1.64Z" style="fill: rgb(228, 137, 123); transform-origin: 412.006px 205.92px;" id="elwdl7rj92za" class="animable"></path><path d="M356.49,176.38c17-2.95,27.32,0,36.94,2.32l-2.59,16.87-20,3.37Z" style="fill: rgb(38, 50, 56); transform-origin: 374.96px 187.041px;" id="elas37ojd51g" class="animable"></path><path d="M324.58,181.87c.31.23.63.45,1,.65a10.94,10.94,0,0,0,6.29,1.55,10.19,10.19,0,0,0,1.66-.22,9.82,9.82,0,0,0,7.93-8.89c.54-5.57-2.45-9.07-7-15.37a10.67,10.67,0,0,0-18.12,1.07C312.34,167.89,318.84,177.52,324.58,181.87Z" style="fill: rgb(228, 137, 123); transform-origin: 328.314px 169.572px;" id="el3vuzz6ohlxh" class="animable"></path><g id="elrm3lti4uioh"><path d="M331.83,184.07a10.19,10.19,0,0,0,1.66-.22,9.92,9.92,0,0,0,6.84-5.09,11.73,11.73,0,0,0-2.75-1.17A15.41,15.41,0,0,0,331.83,184.07Z" style="opacity: 0.2; isolation: isolate; transform-origin: 336.08px 180.83px;" class="animable"></path></g><path d="M350.33,182c-.76,5.12-8.85,10.06-8.85,10.06s-5.55,2.46-5.75.27c2.31-2.63,2.59-4.93,1.82-7a10,10,0,0,0-2.22-3.27,19.41,19.41,0,0,0-1.62-1.52l3.55-14C339.67,171.92,344.83,181.17,350.33,182Z" style="fill: rgb(228, 137, 123); transform-origin: 342.02px 179.889px;" id="elj1tmct5cph" class="animable"></path><path d="M316.53,166.87c.39-.09.84.12,1.27,1.06,1.14,2.53,5,5.58,7.94,6.17s8.26,5.32,8.26,5.32,3.52-4.7,8.1-5.85c0,0,2.49-9.87-3.15-17Z" style="fill: rgb(38, 50, 56); transform-origin: 329.589px 167.995px;" id="elcdyupedjs7r" class="animable"></path><path d="M327.15,171.35a5.05,5.05,0,0,1,.18,4.31c-.8,1.52-3,.45-4.32-1.5-1.14-1.74-2.16-4.68-.6-5.46S326.25,169.38,327.15,171.35Z" style="fill: rgb(228, 137, 123); transform-origin: 324.671px 172.433px;" id="elrikn66n44b" class="animable"></path><path d="M339.45,159.47s2.34-4.84-5.74-9.29-17.68,2.67-20.55,7.51a7.7,7.7,0,0,0-4.84,6.53c-.69,5.24,6.53,6.92,6.53,6.92s-2.58-1.61-3.07-3.13c0,0,1,2.42,5.84,1.56A2.43,2.43,0,0,1,316,168s3.64,2.78,8.64-1.45S339.45,159.47,339.45,159.47Z" style="fill: rgb(38, 50, 56); transform-origin: 324.019px 159.958px;" id="el9fi5155w1ve" class="animable"></path><g id="elgg4iimj3xic"><path d="M387.12,286.44C388,297.52,389,309,390,318.62c1.42-13.83,3.16-23.69,3.16-23.69s1.63-1.34,6.11-8.49,0-20.5,0-20.5C399.37,278.34,387.12,286.44,387.12,286.44Z" style="opacity: 0.2; isolation: isolate; transform-origin: 394.191px 292.28px;" class="animable"></path></g><polygon points="342.76 403.01 343.32 406.26 356.95 406.26 356.95 403.26 342.76 403.01" style="fill: rgb(2, 152, 239); transform-origin: 349.855px 404.635px;" id="el9po1t54fqtd" class="animable"></polygon><polygon points="413.22 404.26 414.52 407.26 426.94 407.26 426.7 404.26 413.22 404.26" style="fill: rgb(2, 152, 239); transform-origin: 420.08px 405.76px;" id="el5itqg3m6rpc" class="animable"></polygon><path d="M326,197.35s14.37-21,37.15-21.79c0,0,37.58,31.55,50.64,75.43l-50.37,13.93S346.36,224.21,326,197.35Z" style="fill: rgb(38, 50, 56); transform-origin: 369.895px 220.24px;" id="elxgjff7316d" class="animable"></path><path d="M326,197.35c-6.1,10.62-10.89,24.86-10.89,24.86l15.42,10.5,12.16-13.39s.16-10-6.57-16.63S326,197.35,326,197.35Z" style="fill: rgb(38, 50, 56); transform-origin: 328.9px 214.979px;" id="ela1wf4a64u7q" class="animable"></path><g id="elsd18lry938d"><path d="M413.75,251l-50.37,13.93A428.58,428.58,0,0,0,341,220.24h0c0-.56-1.21-23.48-3.08-33.19,0,0,6.6-5.82,13.52-7.15,0,0,16.42,0,32.45,17.37C394.83,210.6,407.29,229.29,413.75,251Z" style="fill: rgb(255, 255, 255); opacity: 0.8; transform-origin: 375.835px 222.415px;" class="animable"></path></g><g id="el5qe9tpmwqhf"><polygon points="342.76 403.01 343.32 406.26 356.95 406.26 356.95 403.26 342.76 403.01" style="fill: rgb(255, 255, 255); opacity: 0.7; transform-origin: 349.855px 404.635px;" class="animable"></polygon></g><g id="elvpjv8lkqmgh"><polygon points="413.22 404.26 414.52 407.26 426.94 407.26 426.7 404.26 413.22 404.26" style="fill: rgb(255, 255, 255); opacity: 0.7; transform-origin: 420.08px 405.76px;" class="animable"></polygon></g></g></g><defs>     <filter id="active" height="200%">         <feMorphology in="SourceAlpha" result="DILATED" operator="dilate" radius="2"></feMorphology>                <feFlood flood-color="#32DFEC" flood-opacity="1" result="PINK"></feFlood>        <feComposite in="PINK" in2="DILATED" operator="in" result="OUTLINE"></feComposite>        <feMerge>            <feMergeNode in="OUTLINE"></feMergeNode>            <feMergeNode in="SourceGraphic"></feMergeNode>        </feMerge>    </filter>    <filter id="hover" height="200%">        <feMorphology in="SourceAlpha" result="DILATED" operator="dilate" radius="2"></feMorphology>                <feFlood flood-color="#ff0000" flood-opacity="0.5" result="PINK"></feFlood>        <feComposite in="PINK" in2="DILATED" operator="in" result="OUTLINE"></feComposite>        <feMerge>            <feMergeNode in="OUTLINE"></feMergeNode>            <feMergeNode in="SourceGraphic"></feMergeNode>        </feMerge>            <feColorMatrix type="matrix" values="0   0   0   0   0                0   1   0   0   0                0   0   0   0   0                0   0   0   1   0 "></feColorMatrix>    </filter></defs></svg>